<svg width="24" height="25" viewBox="0 0 24 25" fill="none" xmlns="http://www.w3.org/2000/svg">
<path d="M22 7.05994H19.2111C18.61 7.05994 18.3094 7.05994 18.026 6.97412C17.7426 6.88831 17.4925 6.72159 16.9923 6.38814C16.2421 5.88797 15.3862 5.31739 14.961 5.18866C14.5359 5.05994 14.085 5.05994 13.1833 5.05994C11.9571 5.05994 11.1667 5.05994 10.6154 5.2883C10.0641 5.51666 9.63056 5.95021 8.76347 6.8173L8.00039 7.58038C7.80498 7.77579 7.70727 7.8735 7.64695 7.96996C7.42335 8.32755 7.44813 8.78699 7.70889 9.11845C7.77924 9.20787 7.88689 9.2945 8.10218 9.46776C8.89796 10.1082 10.0452 10.0443 10.7658 9.31936L12 8.0778H13L19 14.1135C19.5523 14.6691 19.5523 15.5698 19 16.1254C18.4477 16.681 17.5523 16.681 17 16.1254L16.5 15.6224M16.5 15.6224L13.5 12.6046M16.5 15.6224C17.0523 16.178 17.0523 17.0788 16.5 17.6343C15.9477 18.1899 15.0523 18.1899 14.5 17.6343L13.5 16.6284M13.5 16.6284C14.0523 17.1839 14.0523 18.0847 13.5 18.6403C12.9477 19.1958 12.0523 19.1958 11.5 18.6403L10 17.1313M13.5 16.6284L11.5 14.6284M10 17.1313L9.5 16.6284M10 17.1313C10.5523 17.6869 10.5523 18.5877 10 19.1433C9.44772 19.6988 8.55229 19.6988 8 19.1433L5.17637 16.2608C4.59615 15.6685 4.30604 15.3724 3.93435 15.2161C3.56266 15.0599 3.14808 15.0599 2.31894 15.0599H2" stroke="white" stroke-opacity="0.5" stroke-width="1.5" stroke-linecap="round" stroke-linejoin="round"/>
<path d="M22 15.0599H19.5" stroke="white" stroke-opacity="0.5" stroke-width="1.5" stroke-linecap="round"/>
<path d="M8.5 7.05994H2" stroke="white" stroke-opacity="0.5" stroke-width="1.5" stroke-linecap="round"/>
</svg>
