<svg width="24" height="25" viewBox="0 0 24 25" fill="none" xmlns="http://www.w3.org/2000/svg">
<path d="M19.7453 13.3099C20.5362 12.1761 21 10.7971 21 9.30994C21 5.44395 17.866 2.30994 14 2.30994C10.134 2.30994 7 5.44394 7 9.30994C7 10.3835 7.24169 11.4006 7.67363 12.3099" stroke="white" stroke-opacity="0.5" stroke-width="1.5" stroke-linecap="round" stroke-linejoin="round"/>
<path d="M12.4375 11.9766V10.31M12.4375 6.64325V10.31M16.5625 6.64325V8.31M11 8.31H12.5M16.5625 8.31H18M16.5625 8.31V10.31M16.5625 10.31V11.9766L12.5 6.64325M16.5625 10.31H18M11 10.31H12.4375" stroke="white" stroke-opacity="0.5" stroke-width="1.5" stroke-linecap="round" stroke-linejoin="round"/>
<path d="M3 14.3099H5.39482C5.68897 14.3099 5.97908 14.3762 6.24217 14.5035L8.28415 15.4915C8.54724 15.6188 8.83735 15.685 9.1315 15.685H10.1741C11.1825 15.685 12 16.4761 12 17.4519C12 17.4913 11.973 17.526 11.9338 17.5368L9.39287 18.2394C8.93707 18.3654 8.449 18.3215 8.025 18.1163L5.84211 17.0602M12 16.8099L16.5928 15.3988C17.407 15.1451 18.2871 15.4459 18.7971 16.1522C19.1659 16.6628 19.0157 17.3941 18.4785 17.7041L10.9629 22.0404C10.4849 22.3162 9.92094 22.3835 9.39516 22.2275L3 20.3298" stroke="white" stroke-opacity="0.5" stroke-width="1.5" stroke-linecap="round" stroke-linejoin="round"/>
</svg>
