<svg width="24" height="25" viewBox="0 0 24 25" fill="none" xmlns="http://www.w3.org/2000/svg">
<path d="M20.016 2.30994C18.9026 2.30994 18 4.99623 18 8.30994H20.016C20.9876 8.30994 21.4734 8.30994 21.7741 7.97449C22.0749 7.63903 22.0225 7.19727 21.9178 6.31375C21.6414 3.98137 20.8943 2.30994 20.016 2.30994Z" stroke="white" stroke-opacity="0.5" stroke-width="1.5"/>
<path d="M18 8.3642V18.9557C18 20.4674 18 21.2232 17.538 21.5207C16.7831 22.007 15.6161 20.9873 15.0291 20.6172C14.5441 20.3113 14.3017 20.1584 14.0325 20.1496C13.7417 20.14 13.4949 20.2867 12.9709 20.6172L11.06 21.8223C10.5445 22.1473 10.2868 22.3099 10 22.3099C9.71321 22.3099 9.45546 22.1473 8.94 21.8223L7.02913 20.6172C6.54415 20.3113 6.30166 20.1584 6.03253 20.1496C5.74172 20.14 5.49493 20.2867 4.97087 20.6172C4.38395 20.9873 3.21687 22.007 2.46195 21.5207C2 21.2232 2 20.4674 2 18.9557V8.3642C2 5.51019 2 4.08319 2.87868 3.19657C3.75736 2.30994 5.17157 2.30994 8 2.30994H20" stroke="white" stroke-opacity="0.5" stroke-width="1.5" stroke-linecap="round" stroke-linejoin="round"/>
<path d="M8.4375 13.6433V11.9767M8.4375 8.30994V11.9767M12.5625 8.30994V9.97668M7 9.97668H8.5M12.5625 9.97668H14M12.5625 9.97668V11.9767M12.5625 11.9767V13.6433L8.5 8.30994M12.5625 11.9767H14M7 11.9767H8.4375" stroke="white" stroke-opacity="0.5" stroke-width="1.5" stroke-linecap="round" stroke-linejoin="round"/>
</svg>
