<svg width="24" height="25" viewBox="0 0 24 25" fill="none" xmlns="http://www.w3.org/2000/svg">
<path d="M12 22.3099C17.5228 22.3099 22 17.8327 22 12.3099C22 6.78709 17.5228 2.30994 12 2.30994C7.52232 2.30994 3.77426 5.25283 2.5 9.30994H5" stroke="white" stroke-opacity="0.5" stroke-width="1.5" stroke-linecap="round" stroke-linejoin="round"/>
<path d="M12 8.30994V12.3099L14 14.3099" stroke="white" stroke-opacity="0.5" stroke-width="1.5" stroke-linecap="round" stroke-linejoin="round"/>
<path d="M2 12.3099C2 12.6472 2.0152 12.9808 2.04494 13.3099M9 22.3099C8.6584 22.1975 8.32471 22.0663 8 21.9177M3.20939 17.3099C3.01655 16.9383 2.84453 16.5532 2.69497 16.1561M4.83122 19.6164C5.1369 19.9457 5.46306 20.254 5.80755 20.5391" stroke="white" stroke-opacity="0.5" stroke-width="1.5" stroke-linecap="round" stroke-linejoin="round"/>
</svg>
