<svg width="24" height="25" viewBox="0 0 24 25" fill="none" xmlns="http://www.w3.org/2000/svg">
<path d="M10 18.3099H14" stroke="white" stroke-width="1.5" stroke-linecap="round" stroke-linejoin="round"/>
<path d="M2.35139 13.5234C1.99837 11.2261 1.82186 10.0776 2.25617 9.05932C2.69047 8.04106 3.65403 7.34437 5.58114 5.951L7.02099 4.90994C9.41829 3.17661 10.6169 2.30994 12 2.30994C13.3831 2.30994 14.5817 3.17661 16.979 4.90994L18.4189 5.951C20.346 7.34437 21.3095 8.04106 21.7438 9.05932C22.1781 10.0776 22.0016 11.2261 21.6486 13.5234L21.3476 15.4823C20.8471 18.7388 20.5969 20.3671 19.429 21.3385C18.2611 22.3099 16.5537 22.3099 13.1388 22.3099H10.8612C7.44633 22.3099 5.73891 22.3099 4.571 21.3385C3.40309 20.3671 3.15287 18.7388 2.65243 15.4823L2.35139 13.5234Z" stroke="white" stroke-width="1.5" stroke-linejoin="round"/>
</svg>
