<svg width="24" height="25" viewBox="0 0 24 25" fill="none" xmlns="http://www.w3.org/2000/svg">
<path d="M4 18.9557V8.3642C4 5.51019 4 4.08319 4.87868 3.19657C5.75736 2.30994 7.17157 2.30994 10 2.30994H14C16.8284 2.30994 18.2426 2.30994 19.1213 3.19657C20 4.08319 20 5.51019 20 8.3642V18.9557C20 20.4674 20 21.2232 19.538 21.5207C18.7831 22.007 17.6161 20.9873 17.0291 20.6172C16.5441 20.3113 16.3017 20.1584 16.0325 20.1496C15.7417 20.14 15.4949 20.2867 14.9709 20.6172L13.06 21.8223C12.5445 22.1473 12.2868 22.3099 12 22.3099C11.7132 22.3099 11.4555 22.1473 10.94 21.8223L9.02913 20.6172C8.54415 20.3113 8.30166 20.1584 8.03253 20.1496C7.74172 20.14 7.49493 20.2867 6.97087 20.6172C6.38395 20.9873 5.21687 22.007 4.46195 21.5207C4 21.2232 4 20.4674 4 18.9557Z" stroke="white" stroke-opacity="0.5" stroke-width="1.5" stroke-linecap="round" stroke-linejoin="round"/>
<path d="M11 11.3099H8" stroke="white" stroke-opacity="0.5" stroke-width="1.5" stroke-linecap="round" stroke-linejoin="round"/>
<path d="M14 7.30994H8" stroke="white" stroke-opacity="0.5" stroke-width="1.5" stroke-linecap="round" stroke-linejoin="round"/>
</svg>
