<svg width="28" height="30" viewBox="0 0 28 30" fill="none" xmlns="http://www.w3.org/2000/svg">
<path d="M2.16951 20.3849C-0.162168 19.9385 0.00252325 19.9808 0.00252325 19.8286C0.00252325 19.7592 0.260828 19.7017 0.574608 19.7017C1.54715 19.7017 4.28622 18.4418 5.79445 17.302C8.83343 15.0037 11.7112 10.3125 12.3492 6.62079C12.5104 5.67714 12.5745 5.52325 12.6404 5.91897C12.7028 6.30117 12.7565 6.15742 12.8606 5.32708C12.9368 4.72334 13.1379 3.27742 13.3078 2.11392L13.6147 0H28C27.8024 10.1705 22.7299 17.9125 16.2116 19.7102C15.5182 19.903 15.5182 19.903 17.8585 20.4509C22.7039 21.5873 25.592 23.3461 27.2858 26.1872C27.785 27.026 28.1335 28.6563 27.8925 29.0351C27.7902 29.1974 26.1208 29.2566 20.7293 29.2938C13.6979 29.3412 13.6979 29.3412 13.4153 28.4533C12.0562 24.1798 8.43817 21.5823 2.16951 20.3849Z" fill="#94C53D"/>
</svg>
