<svg width="174" height="300" viewBox="0 0 174 300" fill="none" xmlns="http://www.w3.org/2000/svg">
<path d="M2.95223 20.3849C0.620547 19.9385 0.785238 19.9808 0.785238 19.8286C0.785238 19.7592 1.04354 19.7017 1.35732 19.7017C2.32987 19.7017 5.06894 18.4418 6.57716 17.302C9.61615 15.0037 12.4939 10.3125 13.1319 6.62079C13.2931 5.67714 13.3572 5.52325 13.4231 5.91897C13.4855 6.30117 13.5393 6.15742 13.6433 5.32708C13.7196 4.72334 13.9206 3.27742 14.0905 2.11392L14.3974 0H28.7827C28.5851 10.1705 23.5126 17.9125 16.9943 19.7102C16.3009 19.903 16.3009 19.903 18.6412 20.4509C23.4866 21.5873 26.3748 23.3461 28.0685 26.1872C28.5677 27.026 28.9162 28.6563 28.6752 29.0351C28.573 29.1974 26.9035 29.2566 21.512 29.2938C14.4806 29.3412 14.4806 29.3412 14.198 28.4533C12.8389 24.1798 9.22089 21.5823 2.95223 20.3849Z" fill="#94C53D"/>
<path d="M48.4574 21.6548H45.9554L42.0854 16.1828L40.1054 18.3968V21.6548H38.0174V9.66679H40.1054V15.6608L45.4514 9.66679H47.9894L43.5254 14.6528L48.4574 21.6548ZM58.0468 16.7408C58.0468 16.9808 58.0348 17.2088 58.0108 17.4248H50.8108C50.8588 18.2768 51.1408 18.9368 51.6568 19.4048C52.1728 19.8728 52.8568 20.1068 53.7088 20.1068C54.8008 20.1068 55.7128 19.7108 56.4448 18.9188L57.7408 20.1608C56.6608 21.3008 55.2928 21.8708 53.6368 21.8708C52.0888 21.8708 50.8768 21.4148 50.0008 20.5028C49.1248 19.5908 48.6868 18.4148 48.6868 16.9748C48.6868 15.5348 49.1128 14.3468 49.9648 13.4108C50.8288 12.4628 51.9868 11.9888 53.4388 11.9888C54.8428 11.9888 55.9588 12.4328 56.7868 13.3208C57.6268 14.2088 58.0468 15.3488 58.0468 16.7408ZM50.8468 15.9848H56.0488C55.9768 15.2168 55.7008 14.6288 55.2208 14.2208C54.7528 13.8008 54.1648 13.5908 53.4568 13.5908C52.7128 13.5908 52.1068 13.8128 51.6388 14.2568C51.1708 14.7008 50.9068 15.2768 50.8468 15.9848ZM68.985 19.9988C68.985 21.5348 68.637 22.6928 67.941 23.4728C67.053 24.4688 65.673 24.9668 63.801 24.9668C62.241 24.9668 60.909 24.6008 59.805 23.8688L60.669 22.2848C61.545 22.9088 62.589 23.2208 63.801 23.2208C64.761 23.2208 65.529 22.9928 66.105 22.5368C66.693 22.0928 66.987 21.3968 66.987 20.4488V19.5668C66.231 20.6228 65.139 21.1508 63.711 21.1508C62.451 21.1508 61.425 20.7188 60.633 19.8548C59.841 18.9908 59.445 17.9048 59.445 16.5968C59.445 15.2768 59.847 14.1788 60.651 13.3028C61.467 12.4268 62.505 11.9888 63.765 11.9888C65.169 11.9888 66.243 12.5228 66.987 13.5908V12.2048H68.985V19.9988ZM66.249 18.6308C66.753 18.0788 67.005 17.3888 67.005 16.5608C67.005 15.7328 66.759 15.0548 66.267 14.5268C65.787 13.9868 65.109 13.7168 64.233 13.7168C63.369 13.7168 62.703 13.9868 62.235 14.5268C61.779 15.0548 61.551 15.7328 61.551 16.5608C61.551 17.3888 61.785 18.0788 62.253 18.6308C62.721 19.1708 63.381 19.4408 64.233 19.4408C65.085 19.4408 65.757 19.1708 66.249 18.6308ZM80.5694 16.9388C80.5694 18.3908 80.1314 19.5788 79.2554 20.5028C78.3914 21.4148 77.2334 21.8708 75.7814 21.8708C74.3294 21.8708 73.1654 21.4148 72.2894 20.5028C71.4254 19.5788 70.9934 18.3908 70.9934 16.9388C70.9934 15.4748 71.4254 14.2868 72.2894 13.3748C73.1654 12.4508 74.3294 11.9888 75.7814 11.9888C77.2334 11.9888 78.3914 12.4508 79.2554 13.3748C80.1314 14.2868 80.5694 15.4748 80.5694 16.9388ZM78.4454 16.9388C78.4454 15.9908 78.2054 15.2168 77.7254 14.6168C77.2574 14.0168 76.6094 13.7168 75.7814 13.7168C74.9534 13.7168 74.2994 14.0168 73.8194 14.6168C73.3394 15.2168 73.0994 15.9908 73.0994 16.9388C73.0994 17.8748 73.3394 18.6428 73.8194 19.2428C74.2994 19.8428 74.9534 20.1428 75.7814 20.1428C76.6094 20.1428 77.2574 19.8428 77.7254 19.2428C78.2054 18.6428 78.4454 17.8748 78.4454 16.9388ZM95.229 12.2048L92.601 21.6548H90.477L88.443 14.7788L86.355 21.6548H84.249L81.639 12.2048H83.781L85.491 19.1168L87.561 12.2048H89.379L91.431 19.1168L93.123 12.2048H95.229Z" fill="#94C53D"/>
<path d="M98.5183 19.8368H102.046C102.754 19.8368 103.318 19.6688 103.738 19.3328C104.158 18.9968 104.368 18.5408 104.368 17.9648C104.368 17.4128 104.164 16.9868 103.756 16.6868C103.348 16.3868 102.79 16.2368 102.082 16.2368H99.2923L98.5183 19.8368ZM103.126 11.4848H100.3L99.6523 14.5268H102.982C103.57 14.5268 104.05 14.3888 104.422 14.1128C104.794 13.8368 104.98 13.4408 104.98 12.9248C104.98 12.4568 104.812 12.1028 104.476 11.8628C104.152 11.6108 103.702 11.4848 103.126 11.4848ZM102.082 21.6548H96.0883L98.6443 9.66679H103.27C104.398 9.66679 105.316 9.94878 106.024 10.5128C106.732 11.0648 107.086 11.7908 107.086 12.6908C107.086 13.3868 106.876 13.9748 106.456 14.4548C106.036 14.9228 105.484 15.2588 104.8 15.4628C105.28 15.6788 105.682 16.0328 106.006 16.5248C106.342 17.0168 106.51 17.5688 106.51 18.1808C106.51 19.1768 106.096 20.0048 105.268 20.6648C104.44 21.3248 103.378 21.6548 102.082 21.6548ZM114.016 21.6548L114.304 20.3768C113.428 21.3728 112.378 21.8708 111.154 21.8708C110.29 21.8708 109.618 21.6128 109.138 21.0968C108.658 20.5808 108.418 19.9448 108.418 19.1888C108.418 18.8648 108.46 18.5048 108.544 18.1088L109.822 12.2048H111.766L110.56 17.8388C110.488 18.1268 110.452 18.3968 110.452 18.6488C110.452 19.1048 110.584 19.4648 110.848 19.7288C111.112 19.9808 111.502 20.1068 112.018 20.1068C112.702 20.1068 113.314 19.8668 113.854 19.3868C114.394 18.8948 114.748 18.2588 114.916 17.4788L116.032 12.2048H117.976L115.978 21.6548H114.016ZM126.682 18.8648C126.682 19.7408 126.322 20.4608 125.602 21.0248C124.882 21.5888 123.904 21.8708 122.668 21.8708C121.696 21.8708 120.832 21.6908 120.076 21.3308C119.32 20.9588 118.738 20.4308 118.329 19.7468L119.824 18.9008C120.424 19.8608 121.384 20.3408 122.704 20.3408C123.292 20.3408 123.772 20.2268 124.144 19.9988C124.528 19.7708 124.72 19.4588 124.72 19.0628C124.72 18.8828 124.684 18.7328 124.612 18.6128C124.552 18.4808 124.408 18.3548 124.18 18.2348C123.964 18.1148 123.766 18.0248 123.586 17.9648C123.418 17.9048 123.106 17.7968 122.65 17.6408C122.218 17.4968 121.864 17.3648 121.588 17.2448C121.312 17.1128 121.012 16.9388 120.688 16.7228C120.364 16.5068 120.124 16.2428 119.968 15.9308C119.812 15.6068 119.734 15.2348 119.734 14.8148C119.734 13.9028 120.088 13.2068 120.796 12.7268C121.516 12.2348 122.404 11.9888 123.46 11.9888C124.312 11.9888 125.08 12.1448 125.764 12.4568C126.448 12.7688 127 13.1588 127.42 13.6268L126.07 14.6348C125.386 13.8908 124.504 13.5188 123.424 13.5188C122.932 13.5188 122.512 13.6088 122.164 13.7888C121.828 13.9688 121.66 14.2328 121.66 14.5808C121.66 14.9048 121.798 15.1628 122.074 15.3548C122.362 15.5348 122.806 15.7268 123.406 15.9308C123.754 16.0388 124.006 16.1228 124.162 16.1828C124.33 16.2428 124.57 16.3388 124.882 16.4708C125.206 16.6028 125.446 16.7348 125.602 16.8668C125.77 16.9988 125.95 17.1608 126.142 17.3528C126.334 17.5448 126.472 17.7668 126.556 18.0188C126.64 18.2708 126.682 18.5528 126.682 18.8648ZM132.395 10.6748H130.451L130.847 8.80278H132.791L132.395 10.6748ZM130.073 21.6548H128.129L130.127 12.2048H132.071L130.073 21.6548ZM136.711 12.2048L136.441 13.4828C137.329 12.4868 138.379 11.9888 139.591 11.9888C140.455 11.9888 141.127 12.2468 141.607 12.7628C142.087 13.2788 142.327 13.9148 142.327 14.6708C142.327 15.0068 142.285 15.3608 142.201 15.7328L140.923 21.6548H138.979L140.185 16.0208C140.257 15.6368 140.293 15.3668 140.293 15.2108C140.293 14.7548 140.161 14.4008 139.897 14.1488C139.633 13.8848 139.243 13.7528 138.727 13.7528C138.031 13.7528 137.413 13.9988 136.873 14.4908C136.333 14.9708 135.985 15.6008 135.829 16.3808L134.713 21.6548H132.769L134.767 12.2048H136.711ZM153.265 16.0028C153.265 16.4348 153.193 16.9028 153.049 17.4068H146.011V17.6948C146.011 18.4388 146.245 19.0388 146.713 19.4948C147.181 19.9388 147.805 20.1608 148.585 20.1608C149.677 20.1608 150.583 19.7648 151.303 18.9728L152.509 20.1608C151.405 21.3008 150.055 21.8708 148.459 21.8708C147.031 21.8708 145.915 21.4568 145.111 20.6288C144.319 19.8008 143.923 18.7268 143.923 17.4068C143.923 15.9068 144.403 14.6288 145.363 13.5728C146.335 12.5168 147.571 11.9888 149.071 11.9888C150.355 11.9888 151.375 12.3728 152.131 13.1408C152.887 13.9088 153.265 14.8628 153.265 16.0028ZM146.209 16.0388H151.321C151.333 15.9908 151.339 15.9128 151.339 15.8048C151.339 15.1328 151.123 14.5928 150.691 14.1848C150.271 13.7648 149.725 13.5548 149.053 13.5548C148.333 13.5548 147.715 13.7828 147.199 14.2388C146.695 14.6948 146.365 15.2948 146.209 16.0388ZM162.242 18.8648C162.242 19.7408 161.882 20.4608 161.162 21.0248C160.442 21.5888 159.464 21.8708 158.228 21.8708C157.256 21.8708 156.392 21.6908 155.636 21.3308C154.88 20.9588 154.298 20.4308 153.89 19.7468L155.384 18.9008C155.984 19.8608 156.944 20.3408 158.264 20.3408C158.852 20.3408 159.332 20.2268 159.704 19.9988C160.088 19.7708 160.28 19.4588 160.28 19.0628C160.28 18.8828 160.244 18.7328 160.172 18.6128C160.112 18.4808 159.968 18.3548 159.74 18.2348C159.524 18.1148 159.326 18.0248 159.146 17.9648C158.978 17.9048 158.666 17.7968 158.21 17.6408C157.778 17.4968 157.424 17.3648 157.148 17.2448C156.872 17.1128 156.572 16.9388 156.248 16.7228C155.924 16.5068 155.684 16.2428 155.528 15.9308C155.372 15.6068 155.294 15.2348 155.294 14.8148C155.294 13.9028 155.648 13.2068 156.356 12.7268C157.076 12.2348 157.964 11.9888 159.02 11.9888C159.872 11.9888 160.64 12.1448 161.324 12.4568C162.008 12.7688 162.56 13.1588 162.98 13.6268L161.63 14.6348C160.946 13.8908 160.064 13.5188 158.984 13.5188C158.492 13.5188 158.072 13.6088 157.724 13.7888C157.388 13.9688 157.22 14.2328 157.22 14.5808C157.22 14.9048 157.358 15.1628 157.634 15.3548C157.922 15.5348 158.366 15.7268 158.966 15.9308C159.314 16.0388 159.566 16.1228 159.722 16.1828C159.89 16.2428 160.13 16.3388 160.442 16.4708C160.766 16.6028 161.006 16.7348 161.162 16.8668C161.33 16.9988 161.51 17.1608 161.702 17.3528C161.894 17.5448 162.032 17.7668 162.116 18.0188C162.2 18.2708 162.242 18.5528 162.242 18.8648ZM171.699 18.8648C171.699 19.7408 171.339 20.4608 170.619 21.0248C169.899 21.5888 168.921 21.8708 167.685 21.8708C166.713 21.8708 165.849 21.6908 165.093 21.3308C164.337 20.9588 163.755 20.4308 163.347 19.7468L164.841 18.9008C165.441 19.8608 166.401 20.3408 167.721 20.3408C168.309 20.3408 168.789 20.2268 169.161 19.9988C169.545 19.7708 169.737 19.4588 169.737 19.0628C169.737 18.8828 169.701 18.7328 169.629 18.6128C169.569 18.4808 169.425 18.3548 169.197 18.2348C168.981 18.1148 168.783 18.0248 168.603 17.9648C168.435 17.9048 168.123 17.7968 167.667 17.6408C167.235 17.4968 166.881 17.3648 166.605 17.2448C166.329 17.1128 166.029 16.9388 165.705 16.7228C165.381 16.5068 165.141 16.2428 164.985 15.9308C164.829 15.6068 164.751 15.2348 164.751 14.8148C164.751 13.9028 165.105 13.2068 165.813 12.7268C166.533 12.2348 167.421 11.9888 168.477 11.9888C169.329 11.9888 170.097 12.1448 170.781 12.4568C171.465 12.7688 172.017 13.1588 172.437 13.6268L171.087 14.6348C170.403 13.8908 169.521 13.5188 168.441 13.5188C167.949 13.5188 167.529 13.6088 167.181 13.7888C166.845 13.9688 166.677 14.2328 166.677 14.5808C166.677 14.9048 166.815 15.1628 167.091 15.3548C167.379 15.5348 167.823 15.7268 168.423 15.9308C168.771 16.0388 169.023 16.1228 169.179 16.1828C169.347 16.2428 169.587 16.3388 169.899 16.4708C170.223 16.6028 170.463 16.7348 170.619 16.8668C170.787 16.9988 170.967 17.1608 171.159 17.3528C171.351 17.5448 171.489 17.7668 171.573 18.0188C171.657 18.2708 171.699 18.5528 171.699 18.8648Z" fill="white"/>
</svg>
