<svg width="24" height="25" viewBox="0 0 24 25" fill="none" xmlns="http://www.w3.org/2000/svg">
<path d="M7 6.98007C5.93408 6.98007 4.91969 6.86076 4 6.64548C3.04003 6.42077 2 7.11206 2 8.11854V19.1275C2 19.9359 2 20.3401 2.19412 20.7569C2.30483 20.9946 2.55696 21.318 2.75898 21.4814C3.11319 21.7678 3.4088 21.837 4 21.9754C4.91969 22.1907 5.93408 22.31 7 22.31C8.91707 22.31 10.6675 21.9241 12 21.288C13.3325 20.652 15.0829 20.266 17 20.266C18.0659 20.266 19.0803 20.3853 20 20.6006C20.96 20.8253 22 20.134 22 19.1275V8.11854C22 7.31017 22 6.90599 21.8059 6.48917C21.6952 6.25145 21.443 5.92807 21.241 5.76471C20 4.74868 18 5.75219 18 5.75219" stroke="white" stroke-opacity="0.5" stroke-width="1.5" stroke-linecap="round"/>
<path d="M14.5 13.8099C14.5 15.1906 13.3807 16.3099 12 16.3099C10.6193 16.3099 9.5 15.1906 9.5 13.8099C9.5 12.4292 10.6193 11.3099 12 11.3099C13.3807 11.3099 14.5 12.4292 14.5 13.8099Z" stroke="white" stroke-opacity="0.5" stroke-width="1.5"/>
<path d="M5.5 14.8099V14.8189" stroke="white" stroke-opacity="0.5" stroke-width="2" stroke-linecap="round" stroke-linejoin="round"/>
<path d="M18.5 12.8021V12.8111" stroke="white" stroke-opacity="0.5" stroke-width="2" stroke-linecap="round" stroke-linejoin="round"/>
<path d="M9.5 4.80994C9.99153 4.30424 11.2998 2.30994 12 2.30994M12 2.30994C12.7002 2.30994 14.0085 4.30424 14.5 4.80994M12 2.30994V8.30994" stroke="white" stroke-opacity="0.5" stroke-width="1.5" stroke-linecap="round" stroke-linejoin="round"/>
</svg>
